Coordinates
version=1
nRows=7
nColumns=46
inDegrees=yes

Units are S.I. units (second, meters, Newtons, ...)
Angles are in degrees.

endheader
time	pelvis_tilt	pelvis_list	pelvis_rotation	pelvis_tx	pelvis_ty	pelvis_tz	bb_angle	bb_tx	bb_ty	bb_tz	hip_flexion_r	hip_adduction_r	hip_rotation_r	knee_angle_r	knee_angle_r_beta	ankle_angle_r	subtalar_angle_r	mtp_angle_r	crank_angle_r	hip_flexion_l	hip_adduction_l	hip_rotation_l	knee_angle_l	knee_angle_l_beta	ankle_angle_l	subtalar_angle_l	mtp_angle_l	crank_angle_l	lumbar_extension	lumbar_bending	lumbar_rotation	arm_flex_r	arm_add_r	arm_rot_r	elbow_flex_r	pro_sup_r	wrist_flex_r	wrist_dev_r	arm_flex_l	arm_add_l	arm_rot_l	elbow_flex_l	pro_sup_l	wrist_flex_l	wrist_dev_l
      7.50000000	    -14.75424867	     -0.01607670	      1.71826502	      0.18425804	      1.13107110	     -0.24187359	      0.00000000	      0.50000000	      0.00000000	      0.25000000	     52.46480546	     -3.65763289	      5.39731411	     43.44559662	      0.75826871	     -1.20867082	    -10.14306827	      0.00000000	      0.00000000	     64.80029137	      0.78302010	      7.59450370	     96.41172688	      1.68270207	     -8.55915282	    -10.21846323	      0.00000000	      0.00000000	    -62.79158384	      1.05413203	     -7.77127195	     89.13135670	     -7.07300008	     39.71923341	     45.18053640	     35.84520254	      0.00000000	      0.00000000	     88.80167994	    -25.14789244	     35.70730353	     54.82233383	     38.41275540	      0.00000000	      0.00000000
      7.50500000	    -14.54071231	      0.49093183	      2.37225959	      0.18528484	      1.13133783	     -0.24071983	      0.00000000	      0.50000000	      0.00000000	      0.25000000	     50.62411327	     -4.38199746	      5.39914237	     41.26968352	      0.72029186	     -2.57270612	    -10.40892230	      0.00000000	      0.00000000	     65.77500183	      1.48750826	      7.49750277	     98.03573660	      1.71104639	     -7.68275806	     -9.94587886	      0.00000000	      0.00000000	    -63.02708341	      0.90632647	     -8.51331488	     89.06099296	     -7.12336031	     39.00753403	     45.22130211	     36.49812441	      0.00000000	      0.00000000	     88.75246585	    -25.00558236	     35.15312785	     55.44147150	     38.99406193	      0.00000000	      0.00000000
      7.51000000	    -14.82610270	      1.08085256	      2.89451126	      0.18606133	      1.13075634	     -0.23945274	      0.00000000	      0.50000000	      0.00000000	      0.25000000	     49.50142459	     -5.13209953	      5.45397234	     39.38880994	      0.68746442	     -3.85133445	    -10.14564402	      0.00000000	      0.00000000	     67.32635131	      2.08776162	      7.24610159	     99.62423815	      1.73877097	     -6.73660018	     -9.25383057	      0.00000000	      0.00000000	    -62.43715196	      0.52779660	     -9.62740122	     89.13355899	     -6.67709445	     40.30002585	     43.06445167	     36.79192599	      0.00000000	      0.00000000	     88.92942562	    -25.32027337	     36.57428149	     54.74563650	     39.38021181	      0.00000000	      0.00000000
      7.51500000	    -15.08319789	      1.68162030	      3.46186709	      0.18665257	      1.13081032	     -0.23858087	      0.00000000	      0.50000000	      0.00000000	      0.25000000	     48.24985328	     -5.96127458	      5.47676316	     37.37852438	      0.65237832	     -4.96025863	     -9.62578991	      0.00000000	      0.00000000	     68.78162085	      2.79933891	      6.93364412	    101.00328946	      1.76283996	     -5.99591112	     -9.20511167	      0.00000000	      0.00000000	    -62.14586649	      0.18703107	    -10.48328207	     89.04181075	     -6.86785656	     40.32443565	     42.86370595	     36.77329597	      0.00000000	      0.00000000	     88.98191036	    -25.02692761	     36.67273932	     54.88126073	     39.41553573	      0.00000000	      0.00000000
      7.52000000	    -15.10302107	      2.10882908	      4.09810314	      0.18711250	      1.13193179	     -0.23742053	      0.00000000	      0.50000000	      0.00000000	      0.25000000	     46.52125148	     -6.60934168	      5.39149519	     34.99075828	      0.61070394	     -6.99836180	    -10.11587557	      0.00000000	      0.00000000	     69.95546807	      3.35962593	      6.82777509	    102.20193739	      1.78376031	     -5.01249825	     -8.34371970	      0.00000000	      0.00000000	    -62.11178713	      0.02945489	    -11.27823357	     89.09289832	     -6.77567303	     40.91311557	     41.95665354	     36.71573451	      0.00000000	      0.00000000	     89.06948602	    -24.82351562	     36.85650969	     54.72208262	     39.40203297	      0.00000000	      0.00000000
      7.52500000	    -15.41137346	      2.54827988	      4.70459722	      0.18738477	      1.13257232	     -0.23638998	      0.00000000	      0.50000000	      0.00000000	      0.25000000	     45.16976491	     -7.29240041	      5.22944193	     32.76414248	      0.57184216	     -8.63371376	    -10.06524271	      0.00000000	      0.00000000	     71.46706258	      3.89076857	      6.58930511	    103.32308396	      1.80332801	     -4.10289530	     -7.83232532	      0.00000000	      0.00000000	    -61.77385077	     -0.16892109	    -12.02591336	     89.09608713	     -6.73440035	     41.42205177	     41.10260386	     36.65450150	      0.00000000	      0.00000000	     89.12705885	    -24.46027086	     36.94330743	     54.46393353	     39.34779545	      0.00000000	      0.00000000
      7.53000000	    -15.72743099	      2.85822557	      5.29914713	      0.18762004	      1.13327088	     -0.23563293	      0.00000000	      0.50000000	      0.00000000	      0.25000000	     43.85101203	     -7.91372396	      4.84433178	     30.62216835	      0.53445766	    -10.30532945	     -9.94583721	      0.00000000	      0.00000000	     73.00810966	      4.35479637	      6.45661835	    104.35169383	      1.82128064	     -3.13611959	     -7.23098514	      0.00000000	      0.00000000	    -61.38373811	     -0.30799333	    -12.65518941	     89.12501312	     -6.72034431	     41.98273220	     40.18914418	     36.58735475	      0.00000000	      0.00000000	     89.17537530	    -23.98493647	     36.99655310	     54.06009865	     39.24196125	      0.00000000	      0.00000000
